<svg xmlns="http://www.w3.org/2000/svg" viewBox="0 0 182.52 191.23"><defs><style>.a{fill:#333;}</style></defs><path class="a" d="M18.86,141,8.79,60.58A6.14,6.14,0,0,1,18,54.5L92.79,97.71A6.15,6.15,0,0,1,95.86,103v86.43A6.14,6.14,0,0,1,86,194.35L21.24,145.14A6.15,6.15,0,0,1,18.86,141Z" transform="translate(-8.74 -4.38)"/><path class="a" d="M107.21,97.71,182,54.5a6.14,6.14,0,0,1,9.17,6.08L181.14,141a6.15,6.15,0,0,1-2.38,4.13L114,194.35a6.14,6.14,0,0,1-9.86-4.89V103A6.15,6.15,0,0,1,107.21,97.71Z" transform="translate(-8.74 -4.38)"/><path class="a" d="M22.81,36.35,97.73,4.86a6.14,6.14,0,0,1,4.76,0L177.2,36.28a6.14,6.14,0,0,1,.7,11L103.07,90.53a6.14,6.14,0,0,1-6.15,0l-74.8-43.2A6.14,6.14,0,0,1,22.81,36.35Z" transform="translate(-8.74 -4.38)"/></svg>